<?xml version="1.0" encoding="utf-8"?>
<!-- Generator: Adobe Illustrator 15.1.0, SVG Export Plug-In . SVG Version: 6.00 Build 0)  -->
<!DOCTYPE svg PUBLIC "-//W3C//DTD SVG 1.1//EN" "http://www.w3.org/Graphics/SVG/1.1/DTD/svg11.dtd">
<svg version="1.1" xmlns="http://www.w3.org/2000/svg" xmlns:xlink="http://www.w3.org/1999/xlink" x="0px" y="0px" width="360px"
	 height="360px" viewBox="0 0 360 360" enable-background="new 0 0 360 360" xml:space="preserve">
<g id="Layer_3" display="none">
	<polygon display="inline" points="342,324 54.001,180 342,36 351,9 9.001,180 351,351 	"/>
</g>
<g id="Layer_1" display="none">
	<polygon display="inline" points="18,36 306,180 18,324 9,351 351,180 9,9 	"/>
	<polygon display="inline" points="36,342 180,54 324,342 351,351 180,9 9,351 	"/>
	<polygon display="inline" points="342,324 54,180 342,36 351,9 9,180 351,351 	"/>
	<polygon display="inline" points="324,18 180,306 36,18 9,9 180,351 351,9 	"/>
</g>
<g id="Layer_5" display="none">
	<path display="inline" d="M180.001,265.293L351,179.586L180.001,93.879L9,9v170.585V351L180.001,265.293z M27,179.172v-135
		l144,67.5l144,67.5l-144,67.5l-144,67.5V179.172z"/>
</g>
<g id="Layer_4" display="none">
	<path display="inline" d="M94.707,180l85.707,171l85.707-171L351,9H180.414H9L94.707,180z M180.828,27h135l-67.5,144l-67.5,144
		l-67.5-144l-67.5-144H180.828z"/>
	<path display="inline" d="M180,94.707L9,180.414l171,85.707L351,351V180.414V9L180,94.707z M333,180.828v135l-144-67.5l-144-67.5
		l144-67.5l144-67.5V180.828z"/>
	<path display="inline" d="M180,266.121l171-85.707L180,94.707L9,9v171.414V351L180,266.121z M27,180V45l144,67.5L315,180l-144,67.5
		L27,315V180z"/>
	<path display="inline" d="M265.293,180L179.586,9L93.879,180L9,351h170.586H351L265.293,180z M179.172,333h-135l67.5-144l67.5-144
		l67.5,144l67.5,144H179.172z"/>
</g>
<g id="Layer_6" display="none">
	<path display="inline" d="M333,180c0,81.798-143.487,148.602-324,152.789V351c188.88,0,342-76.56,342-171C351,85.559,197.881,9,9,9
		v18.21C189.514,31.398,333,98.202,333,180z"/>
</g>
<g id="Layer_7" display="none">
	<path display="inline" d="M180,27c81.798,0,148.602,143.486,152.789,324H351C351,162.119,274.44,9,180,9C85.559,9,9,162.119,9,351
		h18.21C31.398,170.486,98.202,27,180,27z"/>
	<path display="inline" d="M27,180C27,98.202,170.486,31.398,351,27.211V9C162.119,9,9,85.56,9,180c0,94.441,153.119,171,342,171
		v-18.211C170.486,328.602,27,261.799,27,180z"/>
	<path display="inline" d="M180,333C98.202,333,31.398,189.514,27.211,9H9c0,188.881,76.56,342,171,342
		c94.441,0,171-153.119,171-342h-18.211C328.602,189.514,261.799,333,180,333z"/>
	<path display="inline" d="M333,180c0,81.798-143.486,148.602-324,152.789V351c188.881,0,342-76.56,342-171
		C351,85.559,197.881,9,9,9v18.21C189.514,31.398,333,98.202,333,180z"/>
</g>
<g id="Layer_8" display="none">
	<path display="inline" d="M351,180C351,85.559,197.881,9,9,9v9v9.211v305.578V342v9C197.881,351,351,274.44,351,180z M27,27.846
		C198.958,35.895,333,100.941,333,180c0,79.059-134.041,144.105-306,152.154V27.846z"/>
</g>
<g id="Layer_9" display="none">
	<g display="inline">
		<path d="M180,27c81.798,0,148.602,143.486,152.789,324H351C351,162.119,274.44,9,180,9C85.559,9,9,162.119,9,351h18.21
			C31.398,170.486,98.202,27,180,27z"/>
		<rect x="18" y="333" width="324" height="18"/>
	</g>
	<g display="inline">
		<path d="M333,180c0,81.798-143.486,148.602-324,152.789V351c188.881,0,342-76.56,342-171C351,85.559,197.881,9,9,9v18.21
			C189.514,31.398,333,98.202,333,180z"/>
		<rect x="9" y="18" width="18" height="324"/>
	</g>
	<g display="inline">
		<path d="M180,333C98.202,333,31.398,189.514,27.211,9H9c0,188.881,76.56,342,171,342c94.441,0,171-153.119,171-342h-18.211
			C328.602,189.514,261.799,333,180,333z"/>
		<rect x="18" y="9" width="324" height="18"/>
	</g>
	<g display="inline">
		<path d="M27,180C27,98.202,170.486,31.398,351,27.211V9C162.119,9,9,85.56,9,180c0,94.441,153.119,171,342,171v-18.211
			C170.486,328.602,27,261.799,27,180z"/>
		<rect x="333" y="18" width="18" height="324"/>
	</g>
</g>
<g id="Layer_10" display="none">
	<path display="inline" d="M351,9c-83.576,0-150.983,64.664-218.904,93.917C133.957,92.846,135,82.553,135,72
		c0-34.794-28.206-63-63-63S9,37.206,9,72s28.206,63,63,63c11.273,0,22.311-1.413,33.17-3.895C77.142,205.075,9,272.359,9,351
		c9,0,9,0,18,0c0-74.741,74.477-143.277,99.733-226.224C202.433,97.848,270.813,27,351,27C351,18,351,18,351,9z M27,72
		c0-24.853,20.147-45,45-45s45,20.147,45,45c0,1.602-0.03,3.199-0.086,4.792c-0.014,0.407-0.043,0.812-0.062,1.218
		c-0.053,1.196-0.109,2.391-0.192,3.582c-0.028,0.412-0.07,0.821-0.102,1.232c-0.094,1.196-0.193,2.391-0.316,3.583
		c-0.037,0.352-0.083,0.702-0.121,1.053c-0.14,1.259-0.289,2.516-0.46,3.77c-0.038,0.275-0.081,0.549-0.12,0.824
		c-0.191,1.34-0.395,2.677-0.622,4.011c-0.032,0.189-0.067,0.378-0.1,0.567c-0.247,1.425-0.511,2.847-0.796,4.266
		c-0.022,0.108-0.044,0.216-0.067,0.324c-0.306,1.503-0.631,3.003-0.979,4.5c-0.009,0.037-0.017,0.073-0.026,0.109
		c-0.363,1.558-0.747,3.112-1.153,4.663c-6.515,2.027-13.05,3.64-19.619,4.755c-0.222,0.038-0.445,0.07-0.667,0.106
		c-1.309,0.215-2.619,0.41-3.931,0.584c-0.434,0.058-0.868,0.11-1.302,0.163c-1.119,0.137-2.238,0.257-3.359,0.363
		c-0.5,0.047-1,0.095-1.5,0.136c-1.113,0.091-2.227,0.161-3.342,0.22c-0.465,0.025-0.929,0.058-1.395,0.077
		C75.124,116.96,73.564,117,72,117C47.147,117,27,96.853,27,72z"/>
</g>
<g id="Layer_12" display="none">
	<g display="inline">
		<path d="M9,351c9,0,9,0,18,0c0-90,108-171,108-279c-9,0-9,0-18,0C117,171,9,252,9,351z"/>
		<path d="M72,135c0-9,0-9,0-18C162,117,243,9,351,9c0,9,0,9,0,18C252,27,171,135,72,135z"/>
		<path d="M135,72c0-34.794-28.206-63-63-63S9,37.206,9,72s28.206,63,63,63S135,106.794,135,72z M27,72c0-24.853,20.147-45,45-45
			s45,20.147,45,45c0,13.12-1.911,25.921-5.202,38.492C98.652,114.583,85.427,117,72,117C47.147,117,27,96.853,27,72z"/>
	</g>
	<g display="inline">
		<path d="M351,9c-9,0-9,0-18,0c0,90-108,171-108,279c9,0,9,0,18,0C243,189,351,108,351,9z"/>
		<path d="M288,225c0,9,0,9,0,18c-90,0-171,108-279,108c0-9,0-9,0-18C108,333,189,225,288,225z"/>
		<path d="M225,288c0,34.794,28.206,63,63,63s63-28.206,63-63s-28.206-63-63-63S225,253.206,225,288z M333,288
			c0,24.854-20.146,45-45,45s-45-20.146-45-45c0-13.119,1.911-25.921,5.202-38.492C261.348,245.417,274.573,243,288,243
			C312.854,243,333,263.146,333,288z"/>
	</g>
	<g display="inline">
		<path d="M351,351c0-9,0-9,0-18c-90,0-171-108-279-108c0,9,0,9,0,18C171,243,252,351,351,351z"/>
		<path d="M135,288c-9,0-9,0-18,0C117,198,9,117,9,9c9,0,9,0,18,0C27,108,135,189,135,288z"/>
		<path d="M72,225c-34.794,0-63,28.206-63,63s28.206,63,63,63s63-28.206,63-63S106.794,225,72,225z M72,333
			c-24.853,0-45-20.146-45-45s20.147-45,45-45c13.12,0,25.921,1.911,38.492,5.202C114.583,261.348,117,274.573,117,288
			C117,312.854,96.853,333,72,333z"/>
	</g>
	<g display="inline">
		<path d="M9,9c0,9,0,9,0,18c90,0,171,108,279,108c0-9,0-9,0-18C189,117,108,9,9,9z"/>
		<path d="M225,72c9,0,9,0,18,0c0,90,108,171,108,279c-9,0-9,0-18,0C333,252,225,171,225,72z"/>
		<path d="M288,135c34.794,0,63-28.206,63-63S322.794,9,288,9s-63,28.206-63,63S253.206,135,288,135z M288,27
			c24.854,0,45,20.147,45,45s-20.146,45-45,45c-13.119,0-25.921-1.911-38.492-5.202C245.418,98.652,243,85.427,243,72
			C243,47.147,263.146,27,288,27z"/>
	</g>
</g>
<g id="Layer_13" display="none">
	<path display="inline" d="M117,9v215.999H72c-34.794,0-63,28.206-63,63s28.206,63,63,63s63-28.205,63-63v-45h216v-18H135V9H117z
		 M117,243.926v44.073c0,24.854-20.146,45-45,45s-45-20.146-45-45c0-24.853,20.146-45,45-45h44.073H117V243.926z"/>
</g>
<g id="Layer_11" display="none">
	<g display="inline">
		<rect x="117" y="72" width="18" height="279"/>
		<rect x="72" y="117" width="279" height="18"/>
		<path d="M116.073,117H72c-24.853,0-45-20.147-45-45s20.147-45,45-45s45,20.147,45,45v44.073c11.129-11.362,18-26.912,18-44.073
			c0-34.794-28.206-63-63-63S9,37.206,9,72s28.206,63,63,63C89.161,135,104.711,128.129,116.073,117z"/>
		<rect x="117" y="72" width="18" height="279"/>
		<rect x="72" y="117" width="279" height="18"/>
		<path d="M116.073,117H72c-24.853,0-45-20.147-45-45s20.147-45,45-45s45,20.147,45,45v44.073c11.129-11.362,18-26.912,18-44.073
			c0-34.794-28.206-63-63-63S9,37.206,9,72s28.206,63,63,63C89.161,135,104.711,128.129,116.073,117z"/>
	</g>
	<g display="inline">
		<rect x="225" y="9" width="18" height="279"/>
		<rect x="9" y="225" width="279" height="18"/>
		<path d="M243.927,243H288c24.854,0,45,20.146,45,45s-20.146,45-45,45s-45-20.146-45-45v-44.073
			c-11.129,11.361-18,26.912-18,44.073c0,34.794,28.206,63,63,63s63-28.206,63-63s-28.206-63-63-63
			C270.839,225,255.289,231.87,243.927,243z"/>
		<rect x="225" y="9" width="18" height="279"/>
		<rect x="9" y="225" width="279" height="18"/>
		<path d="M243.927,243H288c24.854,0,45,20.146,45,45s-20.146,45-45,45s-45-20.146-45-45v-44.073
			c-11.129,11.361-18,26.912-18,44.073c0,34.794,28.206,63,63,63s63-28.206,63-63s-28.206-63-63-63
			C270.839,225,255.289,231.87,243.927,243z"/>
	</g>
	<g display="inline">
		<rect x="9" y="117" width="279" height="18"/>
		<rect x="225" y="72" width="18" height="279"/>
		<path d="M243,116.073V72c0-24.853,20.146-45,45-45s45,20.147,45,45s-20.146,45-45,45h-44.073c11.362,11.129,26.912,18,44.073,18
			c34.794,0,63-28.206,63-63S322.794,9,288,9s-63,28.206-63,63C225,89.161,231.871,104.711,243,116.073z"/>
		<rect x="9" y="117" width="279" height="18"/>
		<rect x="225" y="72" width="18" height="279"/>
		<path d="M243,116.073V72c0-24.853,20.146-45,45-45s45,20.147,45,45s-20.146,45-45,45h-44.073c11.362,11.129,26.912,18,44.073,18
			c34.794,0,63-28.206,63-63S322.794,9,288,9s-63,28.206-63,63C225,89.161,231.871,104.711,243,116.073z"/>
	</g>
	<g display="inline">
		<rect x="72" y="225" width="279" height="18"/>
		<rect x="117" y="9" width="18" height="279"/>
		<path d="M117,243.927V288c0,24.854-20.147,45-45,45s-45-20.146-45-45s20.147-45,45-45h44.073C104.711,231.871,89.161,225,72,225
			c-34.794,0-63,28.206-63,63s28.206,63,63,63s63-28.206,63-63C135,270.839,128.129,255.289,117,243.927z"/>
		<rect x="72" y="225" width="279" height="18"/>
		<rect x="117" y="9" width="18" height="279"/>
		<path d="M117,243.927V288c0,24.854-20.147,45-45,45s-45-20.146-45-45s20.147-45,45-45h44.073C104.711,231.871,89.161,225,72,225
			c-34.794,0-63,28.206-63,63s28.206,63,63,63s63-28.206,63-63C135,270.839,128.129,255.289,117,243.927z"/>
	</g>
</g>
<g id="Layer_14" display="none">
	<polygon display="inline" points="9.001,9 9,332.999 9,350.999 27,350.999 351,350.999 351,332.999 27,332.999 27.001,9 	"/>
</g>
<g id="Layer_15" display="none">
	<polygon display="inline" points="27,9 9,9 9,333 9,351 27,351 333,351 351,351 351,333 351,9 333,9 333,333 27,333 	"/>
</g>
<g id="Layer_16" display="none">
	<rect x="9" y="9" display="inline" width="18" height="342"/>
	<rect x="9" y="9" display="inline" width="342" height="18"/>
	<rect x="9" y="333" display="inline" width="342" height="18"/>
	<rect x="333" y="9" display="inline" width="18" height="342"/>
</g>
<g id="Layer_17" display="none">
	<path display="inline" d="M195.165,164.11C222.996,135.231,243,104.866,243,72c0-34.794-28.206-63-63-63s-63,28.206-63,63h0
		c0,0,0,0.001,0,0.001c0.001,32.307,23.007,62.698,54,92.422C107.021,225.784,9,284.308,9,351c9,0,9,0,18,0
		c0-58.867,92.405-113.884,156.338-175.124C246.826,233.118,333,288.469,333,351c9,0,9,0,18,0
		C351,280.545,259.077,221.58,195.165,164.11z M163.801,132.849c-0.484-0.557-0.962-1.114-1.437-1.671
		c-0.077-0.09-0.153-0.18-0.23-0.27c-0.456-0.537-0.907-1.074-1.354-1.611c-0.089-0.107-0.178-0.213-0.266-0.32
		c-0.439-0.531-0.875-1.061-1.305-1.592c-0.085-0.105-0.17-0.211-0.255-0.316c-0.435-0.538-0.865-1.076-1.29-1.613
		c-0.068-0.086-0.135-0.171-0.202-0.257c-0.44-0.56-0.877-1.12-1.308-1.681c-0.026-0.035-0.053-0.069-0.08-0.104
		c-2.365-3.086-4.566-6.174-6.585-9.267c-0.019-0.028-0.038-0.057-0.056-0.085c-0.353-0.54-0.696-1.081-1.037-1.621
		c-0.072-0.114-0.145-0.228-0.216-0.341c-0.313-0.5-0.62-1.001-0.923-1.502c-0.093-0.153-0.187-0.307-0.279-0.46
		c-0.29-0.482-0.573-0.965-0.854-1.448c-0.097-0.167-0.194-0.335-0.291-0.502c-0.273-0.476-0.542-0.953-0.806-1.43
		c-0.095-0.172-0.189-0.344-0.284-0.517c-0.261-0.477-0.518-0.955-0.77-1.432c-0.086-0.164-0.171-0.328-0.256-0.492
		c-0.254-0.488-0.505-0.977-0.749-1.466c-0.07-0.141-0.138-0.281-0.208-0.422c-0.253-0.515-0.504-1.029-0.746-1.544
		c-0.038-0.081-0.073-0.161-0.111-0.241c-1.146-2.457-2.165-4.917-3.041-7.382c-0.001-0.005-0.003-0.01-0.005-0.015
		c-0.187-0.526-0.363-1.053-0.537-1.579c-0.045-0.135-0.092-0.271-0.136-0.406c-0.156-0.481-0.303-0.963-0.448-1.446
		c-0.054-0.178-0.109-0.357-0.161-0.536c-0.135-0.461-0.263-0.923-0.388-1.385c-0.054-0.199-0.107-0.397-0.159-0.597
		c-0.118-0.452-0.229-0.904-0.337-1.356c-0.049-0.207-0.098-0.415-0.145-0.622c-0.103-0.449-0.201-0.898-0.293-1.347
		c-0.043-0.208-0.083-0.415-0.124-0.623c-0.088-0.454-0.174-0.907-0.252-1.361c-0.034-0.196-0.064-0.394-0.097-0.59
		c-0.076-0.466-0.149-0.932-0.214-1.399c-0.024-0.172-0.044-0.344-0.066-0.516c-0.064-0.493-0.127-0.985-0.179-1.479
		c-0.011-0.105-0.019-0.21-0.029-0.315c-0.182-1.83-0.282-3.662-0.289-5.499c0-0.04-0.002-0.08-0.003-0.119
		c0-0.024-0.001-0.048-0.001-0.072h0c0-24.853,20.147-45,45-45c24.854,0,45,20.147,45,45c0,1.15-0.039,2.296-0.097,3.441
		c-0.011,0.216-0.02,0.433-0.032,0.649c-0.066,1.107-0.158,2.212-0.277,3.315c-0.021,0.198-0.046,0.396-0.069,0.593
		c-0.13,1.121-0.279,2.24-0.463,3.356c-0.004,0.028-0.008,0.057-0.013,0.084c-0.189,1.147-0.413,2.292-0.656,3.434
		c-0.041,0.188-0.08,0.377-0.121,0.566c-0.249,1.124-0.521,2.246-0.82,3.366c-0.037,0.136-0.076,0.271-0.113,0.407
		c-0.317,1.162-0.655,2.321-1.025,3.478c-0.001,0-0.001,0.001-0.001,0.001c-0.376,1.175-0.784,2.348-1.215,3.519
		c-0.047,0.128-0.093,0.255-0.141,0.383c-0.436,1.17-0.894,2.337-1.381,3.502c-0.014,0.033-0.028,0.067-0.042,0.1
		c-1.017,2.424-2.143,4.84-3.372,7.247c-0.022,0.043-0.045,0.087-0.067,0.13c-3.757,7.332-8.467,14.583-13.934,21.772
		c0.002-0.001,0.004-0.001,0.006-0.002c-5.44,7.156-11.628,14.249-18.37,21.296C175.924,146.037,169.534,139.445,163.801,132.849z"
		/>
</g>
<g id="Layer_18" display="none">
	<g display="inline">
		<path d="M9,351c9,0,9,0,18,0c0-90,216-171,216-279c-9,0-9,0-18,0C225,171,9,252,9,351z"/>
		<path d="M117,72c9,0,9,0,18,0c0,90,216,171.001,216,279c-9,0-9,0-18,0C333,252.001,117,171,117,72z"/>
		<path d="M117.004,72.156c0.071,29.139,19.925,53.623,46.841,60.744c-17.439-20.054-28.771-40.148-28.84-60.709
			c0-0.064-0.005-0.126-0.005-0.19c0-24.853,20.147-45,45-45c24.854,0,45,20.147,45,45c0,20.444-9.22,40.121-23.84,59.347
			C225.543,122.652,243,99.369,243,72c0-34.794-28.206-63-63-63s-63,28.206-63,63h0C117,72.052,117.004,72.104,117.004,72.156z"/>
	</g>
	<g display="inline">
		<path d="M351,9c-9,0-9,0-18,0c0,90-216,171-216,279c9,0,9,0,18,0C135,189,351,108,351,9z"/>
		<path d="M243,288c-9,0-9,0-18,0C224.999,198.001,9,116.999,9,9c9,0,9,0,18,0C27,107.999,242.999,189.001,243,288z"/>
		<path d="M242.996,287.844c-0.071-29.139-19.925-53.622-46.842-60.743c17.439,20.054,28.771,40.147,28.841,60.709
			c0.001,0.063,0.005,0.126,0.005,0.19c0,24.854-20.146,45-45,45s-45-20.146-45-45c0-20.444,9.22-40.12,23.84-59.347
			C134.457,237.349,117,260.631,117,288c0,34.794,28.206,63,63,63s63-28.206,63-63l0,0C243,287.948,242.996,287.896,242.996,287.844
			z"/>
	</g>
	<g display="inline">
		<path d="M351,351c0-9,0-9,0-18c-90,0-171-216-279-216c0,9,0,9,0,18C171,135,252,351,351,351z"/>
		<path d="M72,243c0-9,0-9,0-18C162,225,243.001,9,351,9c0,9,0,9,0,18C252.001,27,171,243,72,243z"/>
		<path d="M72.156,242.996c29.139-0.07,53.623-19.925,60.744-46.842c-20.054,17.439-40.148,28.771-60.709,28.841
			C72.126,224.996,72.064,225,72,225c-24.853,0-45-20.146-45-45s20.147-45,45-45c20.444,0,40.121,9.22,59.347,23.84
			C122.652,134.457,99.369,117,72,117c-34.794,0-63,28.206-63,63s28.206,63,63,63l0,0C72.052,243,72.104,242.996,72.156,242.996z"/>
	</g>
	<g display="inline">
		<path d="M9,9c0,9,0,9,0,18c90,0,171,216,279,216c0-9,0-9,0-18C189,225,108,9,9,9z"/>
		<path d="M288,117c0,9,0,9,0,18c-90,0-171.001,216-279,216c0-9,0-9,0-18C107.999,333,189,117,288,117z"/>
		<path d="M287.844,117.004c-29.139,0.071-53.622,19.925-60.744,46.841c20.055-17.439,40.148-28.771,60.71-28.84
			c0.063,0,0.126-0.005,0.19-0.005c24.854,0,45,20.147,45,45c0,24.854-20.146,45-45,45c-20.444,0-40.121-9.22-59.347-23.84
			C237.348,225.543,260.631,243,288,243c34.794,0,63-28.206,63-63s-28.206-63-63-63v0C287.948,117,287.896,117.004,287.844,117.004z
			"/>
	</g>
</g>
<g id="Layer_19" display="none">
	<path display="inline" d="M351,9.001l-209.249,162l-69.75-54c-34.795,0-63,28.206-63,63c0,34.793,28.205,63,63,63V243
		l69.749-53.999L351,351v-17.999l-197.625-153L351,27.001V9.001z M27,180.001c0-24.853,20.146-45,45-45l43.578,33.738l0,0
		l5.073,3.928l9.474,7.334l-14.547,11.261l0,0L72,225.001l0,0C47.147,225.001,27,204.854,27,180.001z"/>
</g>
<g id="Layer_20" display="none">
	<g display="inline">
		<polygon points="27,351 9,351 224.999,72 242.999,72 		"/>
		<polygon points="135,72 117,72 332.999,351 350.999,351 		"/>
		<path d="M164.234,133.011c5.038,1.298,10.321,1.989,15.765,1.989c5.444,0,10.728-0.691,15.766-1.989L242.999,72
			c0-34.794-28.206-63-63-63s-63,28.206-63,63H117L164.234,133.011z M179.999,27c24.853,0,45,20.147,45,45
			c0,20.964-14.336,38.579-33.738,43.579L180,130.125l-11.261-14.546C149.335,110.58,134.999,92.964,134.999,72
			C134.999,47.147,155.146,27,179.999,27z"/>
	</g>
	<g display="inline">
		<polygon points="9,27 9,9 288,225 288,243 		"/>
		<polygon points="288,135 288,117 9,333 9,351 		"/>
		<path d="M226.988,164.235c-1.298,5.038-1.989,10.321-1.989,15.765c0,5.445,0.691,10.728,1.989,15.766L288,243
			c34.793,0,63-28.206,63-63c0-34.794-28.207-63-63-63V117L226.988,164.235z M333,180c0,24.853-20.147,45-45,45
			c-20.965,0-38.58-14.336-43.579-33.738L229.874,180l14.546-11.261C249.42,149.335,267.035,135,288,135
			C312.853,135,333,155.146,333,180z"/>
	</g>
	<g display="inline">
		<polygon points="351.001,333 351.001,351 72,135 72,117 		"/>
		<polygon points="72,225 72,243 351.001,27 351.001,9 		"/>
		<path d="M133.012,195.766c1.298-5.038,1.989-10.321,1.989-15.765c0-5.444-0.691-10.728-1.989-15.766L72,117
			c-34.793,0-63,28.206-63,63c0,34.794,28.207,63,63,63V243L133.012,195.766z M27,180c0-24.853,20.147-45,45-45
			c20.965,0,38.58,14.336,43.579,33.738L130.126,180l-14.546,11.261c-5,19.403-22.615,33.739-43.58,33.739
			C47.148,225.001,27,204.854,27,180z"/>
	</g>
	<g display="inline">
		<polygon points="333,9 351,9 135,288 117,288 		"/>
		<polygon points="225,288 243,288 27,9 9,9 		"/>
		<path d="M195.766,226.988c-5.038-1.298-10.321-1.989-15.765-1.989c-5.444,0-10.728,0.691-15.766,1.989L117,288
			c0,34.793,28.206,63,63,63c34.794,0,63-28.207,63-63H243L195.766,226.988z M180,333c-24.853,0-45-20.147-45-45
			c0-20.965,14.336-38.58,33.738-43.579L180,229.874l11.261,14.546c19.403,5,33.739,22.615,33.739,43.58
			C225.001,312.853,204.854,333,180,333z"/>
	</g>
</g>
<g id="Layer_21">
	<path d="M9,9v342l170.735-161.749L351,351v-18L189.5,180L351,27V9L179.736,170.75L9,9z M27,315V45l142.941,135L27,315z"/>
</g>
<g id="Layer_22" display="none">
	<polygon display="inline" points="315,27 45,27 351,351 333,351 9,9 351,9 27,351 9,351 	"/>
	<polygon display="inline" points="27,45 27,315 351,9 351,27 9,351 9,9 351,333 351,351 	"/>
	<polygon display="inline" points="45,333 315,333 9,9 27,9 351,351 9,351 333,9 351,9 	"/>
	<polygon display="inline" points="333,315 333,45 9,351 9,333 351,9 351,351 9,27 9,9 	"/>
</g>
<g id="Layer_23" display="none">
	<path display="inline" d="M351,171L189,9h-18v162H9v18h162v162h18V189h162V171z M189,171V27l144,144H189z"/>
</g>
<g id="Layer_24" display="none">
	<polygon display="inline" points="189,27 333,171 9,171 9,189 351,189 351,171 189,9 171,9 171,351 189,351 	"/>
	<polygon display="inline" points="333,189 189,333 189,9 171,9 171,351 189,351 351,189 351,171 9,171 9,189 	"/>
	<polygon display="inline" points="171,333 27,189 351,189 351,171 9,171 9,189 171,351 189,351 189,9 171,9 	"/>
	<polygon display="inline" points="27,171 171,27 171,351 189,351 189,9 171,9 9,171 9,189 351,189 351,171 	"/>
</g>
</svg>
